<svg width="24" height="24" viewBox="0 0 24 24" fill="none" xmlns="http://www.w3.org/2000/svg">
    <path d="M0.373047 10.7591C0.373047 5.91096 0.373047 3.48687 1.87918 1.98074C3.38531 0.474609 5.80939 0.474609 10.6576 0.474609H13.126C17.9741 0.474609 20.3982 0.474609 21.9043 1.98074C23.4105 3.48687 23.4105 5.91096 23.4105 10.7591V13.2275C23.4105 18.0757 23.4105 20.4998 21.9043 22.0059C20.3982 23.512 17.9741 23.512 13.126 23.512H10.6576C5.8094 23.512 3.38531 23.512 1.87918 22.0059C0.373047 20.4998 0.373047 18.0757 0.373047 13.2275V10.7591Z" fill="#8253DD"/>
    <path d="M16.6494 17.1798C16.362 17.7684 15.7642 18.1417 15.1091 18.1417L8.65056 18.1417C7.99376 18.1417 7.3947 17.7664 7.10818 17.1754L4.49253 11.7801C3.94065 10.6417 4.76984 9.31825 6.03491 9.31825L17.7437 9.31825C19.0109 9.31825 19.84 10.6458 19.284 11.7845L16.6494 17.1798Z" fill="white"/>
    <path fill-rule="evenodd" clip-rule="evenodd" d="M9.62473 5.05011C10.0638 5.22682 10.2765 5.72604 10.0998 6.16515L8.4502 10.2643C8.27349 10.7034 7.77427 10.9161 7.33516 10.7394C6.89605 10.5627 6.68333 10.0635 6.86005 9.62439L8.50969 5.52522C8.6864 5.08611 9.18562 4.8734 9.62473 5.05011Z" fill="white"/>
    <path fill-rule="evenodd" clip-rule="evenodd" d="M14.1634 5.05011C13.7243 5.22682 13.5115 5.72604 13.6882 6.16515L15.3379 10.2643C15.5146 10.7034 16.0138 10.9161 16.4529 10.7394C16.892 10.5627 17.1048 10.0635 16.928 9.62439L15.2784 5.52522C15.1017 5.08611 14.6025 4.8734 14.1634 5.05011Z" fill="white"/>
</svg>
