<svg width="27" height="17" viewBox="0 0 27 17" fill="none" xmlns="http://www.w3.org/2000/svg">
    <path d="M0.419434 3.8616C0.419434 2.73614 0.419434 2.17341 0.638463 1.74354C0.831126 1.36542 1.13855 1.05799 1.51667 0.86533C1.94654 0.646301 2.50927 0.646301 3.63473 0.646301H23.0689C24.1943 0.646301 24.757 0.646301 25.1869 0.86533C25.565 1.05799 25.8725 1.36542 26.0651 1.74354C26.2842 2.17341 26.2842 2.73614 26.2842 3.8616V12.8922C26.2842 14.0177 26.2842 14.5804 26.0651 15.0103C25.8725 15.3884 25.565 15.6958 25.1869 15.8885C24.757 16.1075 24.1943 16.1075 23.0689 16.1075H3.63473C2.50927 16.1075 1.94654 16.1075 1.51667 15.8885C1.13855 15.6958 0.831126 15.3884 0.638463 15.0103C0.419434 14.5804 0.419434 14.0177 0.419434 12.8922V3.8616Z" fill="#DEDEDE"/>
    <path fill-rule="evenodd" clip-rule="evenodd" d="M23.0689 1.46266H3.63473C3.05853 1.46266 2.67548 1.46329 2.38133 1.48732C2.09672 1.51058 1.96796 1.5516 1.88729 1.59271C1.66277 1.7071 1.48024 1.88964 1.36584 2.11416C1.32474 2.19483 1.28371 2.32359 1.26046 2.6082C1.23642 2.90234 1.23579 3.2854 1.23579 3.8616V12.8922C1.23579 13.4684 1.23642 13.8514 1.26046 14.1456C1.28371 14.4302 1.32474 14.559 1.36584 14.6396C1.48024 14.8642 1.66277 15.0467 1.88729 15.1611C1.96796 15.2022 2.09672 15.2432 2.38133 15.2665C2.67548 15.2905 3.05853 15.2911 3.63473 15.2911H23.0689C23.6451 15.2911 24.0281 15.2905 24.3223 15.2665C24.6069 15.2432 24.7356 15.2022 24.8163 15.1611C25.0408 15.0467 25.2234 14.8642 25.3377 14.6396C25.3789 14.559 25.4199 14.4302 25.4431 14.1456C25.4672 13.8514 25.4678 13.4684 25.4678 12.8922V3.8616C25.4678 3.2854 25.4672 2.90235 25.4431 2.6082C25.4199 2.32359 25.3789 2.19483 25.3377 2.11416C25.2234 1.88964 25.0408 1.7071 24.8163 1.59271C24.7356 1.5516 24.6069 1.51058 24.3223 1.48732C24.0281 1.46329 23.6451 1.46266 23.0689 1.46266ZM0.638463 1.74354C0.419434 2.17341 0.419434 2.73614 0.419434 3.8616V12.8922C0.419434 14.0177 0.419434 14.5804 0.638463 15.0103C0.831126 15.3884 1.13855 15.6958 1.51667 15.8885C1.94654 16.1075 2.50927 16.1075 3.63473 16.1075H23.0689C24.1943 16.1075 24.757 16.1075 25.1869 15.8885C25.565 15.6958 25.8725 15.3884 26.0651 15.0103C26.2842 14.5804 26.2842 14.0177 26.2842 12.8922V3.8616C26.2842 2.73614 26.2842 2.17341 26.0651 1.74354C25.8725 1.36542 25.565 1.05799 25.1869 0.86533C24.757 0.646301 24.1943 0.646301 23.0689 0.646301H3.63473C2.50927 0.646301 1.94654 0.646301 1.51667 0.86533C1.13855 1.05799 0.831126 1.36542 0.638463 1.74354Z" fill="#8253DD"/>
    <path d="M0.419434 9.37585H26.2841V13.0004H0.419434V9.37585Z" fill="#8253DD"/>
</svg>
