<svg width="18" height="22" viewBox="0 0 18 22" fill="none" xmlns="http://www.w3.org/2000/svg">
    <path fill-rule="evenodd" clip-rule="evenodd" d="M17.9789 12.9485C17.9789 8.18416 14.1166 4.3219 9.35228 4.3219C4.58794 4.3219 0.725683 8.18416 0.725683 12.9485C0.725683 17.7128 4.58794 21.5751 9.35228 21.5751C14.1166 21.5751 17.9789 17.7128 17.9789 12.9485Z" fill="#58388D"/>
    <path d="M15.4401 12.9486C15.4401 12.1492 15.2826 11.3575 14.9767 10.6189C14.6707 9.88032 14.2223 9.20921 13.657 8.64391C13.0917 8.07861 12.4206 7.63019 11.682 7.32425C10.9434 7.01831 10.1518 6.86085 9.3523 6.86085L9.3523 12.9486L15.4401 12.9486Z" fill="white"/>
    <path d="M10.5624 2.73706H8.19782V4.77231H10.5624V2.73706Z" fill="#58388D"/>
    <path d="M12.5774 0.503052H6.18206V2.8751H12.5774V0.503052Z" fill="#58388D"/>
</svg>
