<svg width="284" height="106" viewBox="0 0 284 106" fill="none" xmlns="http://www.w3.org/2000/svg">
    <path d="M136.895 15.7612H159.437L133.565 67.4763C125.48 83.5326 115.537 87.6698 105.98 87.6698C102.117 87.7135 98.2796 87.0289 94.6606 85.6505L97.3395 68.7815C99.2818 69.5303 101.345 69.8979 103.421 69.865C105.663 69.8372 107.852 69.1637 109.735 67.922C111.618 66.6802 113.119 64.9208 114.065 62.8466L99.9943 15.8351H120.967L126.759 41.9636L136.895 15.7612Z" fill="white"/>
    <path d="M150.266 76.3417L154.417 49.1051H160.812C167.243 39.1232 171.133 27.6631 172.131 15.7612H215.452L210.239 49.1051H217.479L213.328 76.3417H194.721L196.7 64.0286H170.756L168.873 76.3417H150.266ZM180.892 49.1051H191.535L194.576 30.734H187.674C186.787 37.298 184.47 43.5756 180.892 49.1051Z" fill="white"/>
    <path d="M224.985 63.9794L232.466 15.7612H251.943L249.095 34.3541L267.509 15.7612H283.945L276.463 63.9794H256.963L259.738 45.4851L241.42 63.9794H224.985Z" fill="white"/>
    <path d="M63.6722 13.5448L65.796 0.0250244H44.5338L42.41 13.4217C19.2894 14.3575 3.79531 26.5474 0.826803 46.4947C-2.50371 68.0426 13.9799 81.6117 31.791 82.4243L28.1226 105.77H49.3607L52.9084 82.5721C75.498 81.6117 91.5231 69.397 94.6364 49.4744C98.0876 27.9019 82.0142 14.3082 63.6722 13.5448ZM34.5664 63.5606C23.9473 62.748 21.9442 54.3258 22.8854 48.0954C23.3976 43.901 25.3438 40.0255 28.3812 37.1515C31.4185 34.2774 35.3523 32.5891 39.4898 32.3838L34.5664 63.5606ZM72.5777 47.8245C72.147 52.0544 70.2264 55.9811 67.1726 58.8753C64.1188 61.7694 60.1394 63.4343 55.9734 63.5606L60.8003 32.3838C70.9849 33.1965 73.4948 41.594 72.5777 47.8491V47.8245Z" fill="white"/>
</svg>
