<svg width="55" height="36" viewBox="0 0 55 36" fill="none" xmlns="http://www.w3.org/2000/svg">
<path d="M48.2299 18.4016C46.932 14.4082 44.1666 7.93897 39.2448 3.76592V2.82748C39.2422 2.32257 39.0405 1.8391 38.6834 1.48207C38.3264 1.12503 37.8429 0.923277 37.338 0.920654H30.2498L28.0535 3.73597H33.7041C36.4095 6.7809 41.6209 14.3583 35.0618 21.8358H24.1599C23.258 21.8435 22.3786 21.5545 21.657 21.0134C20.9354 20.4722 20.4118 19.7088 20.1666 18.8408C19.7872 17.3932 20.2365 15.6162 23.1616 14.0188H24.8887C25.379 14.0713 25.8748 14.0201 26.3439 13.8684C26.813 13.7167 27.245 13.468 27.6117 13.1385C27.9784 12.8089 28.2717 12.4059 28.4724 11.9556C28.6732 11.5052 28.777 11.0177 28.777 10.5247C28.777 10.0316 28.6732 9.5441 28.4724 9.09378C28.2717 8.64346 27.9784 8.24043 27.6117 7.91088C27.245 7.58132 26.813 7.33263 26.3439 7.18095C25.8748 7.02927 25.379 6.97799 24.8887 7.03048H13.7073L8.16655 14.0188H18.5692C10.5027 15.8558 2.47606 20.7277 1.26807 28.7843H6.70899C6.67404 29.693 6.82286 30.5995 7.14652 31.4494C7.47019 32.2993 7.96204 33.0751 8.59263 33.7304C9.22322 34.3857 9.97958 34.907 10.8164 35.2631C11.6532 35.6192 12.5533 35.8027 13.4628 35.8027C14.3722 35.8027 15.2723 35.6192 16.1091 35.2631C16.9459 34.907 17.7023 34.3857 18.3329 33.7304C18.9634 33.0751 19.4553 32.2993 19.779 31.4494C20.1026 30.5995 20.2514 29.693 20.2165 28.7843H37.2581C37.2581 30.5768 37.9702 32.2959 39.2377 33.5634C40.5052 34.8309 42.2243 35.543 44.0169 35.543C45.8094 35.543 47.5285 34.8309 48.796 33.5634C50.0635 32.2959 50.7756 30.5768 50.7756 28.7843H54.8189C54.3996 22.8741 51.3447 19.8991 48.2299 18.4016Z" fill="#58388D"/>
<path d="M10.792 7.01038H5.55076L0 14.0287H5.24127L10.792 7.01038Z" fill="#58388D"/>
<path d="M13.4572 24.8407C12.6674 24.8407 11.8953 25.0749 11.2386 25.5137C10.5819 25.9525 10.0701 26.5762 9.76785 27.3059C9.4656 28.0356 9.38651 28.8385 9.5406 29.6131C9.69468 30.3877 10.075 31.0993 10.6335 31.6578C11.192 32.2163 11.9035 32.5966 12.6782 32.7507C13.4528 32.9047 14.2557 32.8256 14.9854 32.5234C15.7151 32.2212 16.3388 31.7093 16.7776 31.0526C17.2164 30.3959 17.4506 29.6239 17.4506 28.834C17.4506 27.7749 17.0299 26.7592 16.281 26.0103C15.5321 25.2614 14.5163 24.8407 13.4572 24.8407Z" fill="#FCEA10"/>
<path d="M44.0265 24.8407C43.2367 24.8407 42.4647 25.0749 41.808 25.5137C41.1512 25.9525 40.6394 26.5762 40.3372 27.3059C40.0349 28.0356 39.9559 28.8385 40.1099 29.6131C40.264 30.3877 40.6443 31.0993 41.2028 31.6578C41.7613 32.2163 42.4728 32.5966 43.2475 32.7507C44.0221 32.9047 44.825 32.8256 45.5547 32.5234C46.2844 32.2212 46.9081 31.7093 47.3469 31.0526C47.7857 30.3959 48.0199 29.6239 48.0199 28.834C48.0199 27.7749 47.5992 26.7592 46.8503 26.0103C46.1014 25.2614 45.0856 24.8407 44.0265 24.8407Z" fill="#FCEA10"/>
</svg>
