<svg width="147" height="56" viewBox="0 0 147 56" fill="none" xmlns="http://www.w3.org/2000/svg">
    <g clip-path="url(#clip0_214_378)">
        <path d="M70.4716 8.42932H82.0895L68.7551 35.2253C64.588 43.5448 59.4632 45.6885 54.5374 45.6885C52.5466 45.7111 50.5689 45.3564 48.7036 44.6421L50.0843 35.9016C51.0854 36.2895 52.1489 36.48 53.2189 36.463C54.3744 36.4486 55.5024 36.0996 56.4729 35.4562C57.4434 34.8128 58.217 33.9012 58.7045 32.8264L51.4526 8.4676H62.262L65.2473 22.006L70.4716 8.42932Z" fill="#58388D"/>
        <path d="M77.3628 39.8189L79.5023 25.7063H82.7986C86.1128 20.5343 88.1179 14.5962 88.6324 8.42932H110.96L108.273 25.7063H112.005L109.866 39.8189H100.275L101.295 33.4389H87.9234L86.9532 39.8189H77.3628ZM93.1477 25.7063H98.6332L100.201 16.1874H96.643C96.1861 19.5885 94.9917 22.8412 93.1477 25.7063Z" fill="#58388D"/>
        <path d="M115.873 33.4134L119.73 8.42932H129.768L128.3 18.0631L137.791 8.42932H146.262L142.406 33.4134H132.355L133.785 23.8306L124.344 33.4134H115.873Z" fill="#58388D"/>
        <path d="M32.732 7.28097L33.8266 0.275757H22.868L21.7734 7.21719C9.85692 7.70207 1.87117 14.0182 0.341192 24.3538C-1.37537 35.5188 7.12038 42.5495 16.3003 42.9706L14.4095 55.0671H25.3558L27.1843 43.0472C38.827 42.5495 47.0864 36.2206 48.6911 25.8978C50.4698 14.72 42.1855 7.67653 32.732 7.28097ZM17.7307 33.1965C12.2576 32.7754 11.2252 28.4115 11.7103 25.1832C11.9743 23.0099 12.9774 21.0019 14.5428 19.5127C16.1083 18.0235 18.1358 17.1487 20.2683 17.0423L17.7307 33.1965ZM37.3219 25.0428C37.0999 27.2346 36.11 29.2692 34.5361 30.7688C32.9622 32.2684 30.9112 33.131 28.764 33.1965L31.2518 17.0423C36.501 17.4634 37.7946 21.8146 37.3219 25.0556V25.0428Z" fill="#58388D"/>
    </g>
    <defs>
        <clipPath id="clip0_214_378">
            <rect width="146.144" height="54.8041" fill="white" transform="translate(0.117371 0.275757)"/>
        </clipPath>
    </defs>
</svg>
