<svg width="24" height="24" viewBox="0 0 24 24" fill="none" xmlns="http://www.w3.org/2000/svg">
    <path d="M0 10.7591C0 5.91096 0 3.48687 1.50613 1.98074C3.01226 0.474609 5.43635 0.474609 10.2845 0.474609H12.7529C17.6011 0.474609 20.0252 0.474609 21.5313 1.98074C23.0374 3.48687 23.0374 5.91096 23.0374 10.7591V13.2275C23.0374 18.0757 23.0374 20.4998 21.5313 22.0059C20.0252 23.512 17.6011 23.512 12.7529 23.512H10.2845C5.43635 23.512 3.01226 23.512 1.50613 22.0059C0 20.4998 0 18.0757 0 13.2275V10.7591Z" fill="#8253DD"/>
    <path d="M5.25781 4.36694L17.7806 4.36695V20.8681H5.25781V4.36694Z" fill="white"/>
    <path d="M12.5879 6.82457C12.5879 6.35124 12.9716 5.96753 13.4449 5.96753H15.5383C16.0116 5.96753 16.3954 6.35124 16.3954 6.82457V8.94357C16.3954 9.41691 16.0116 9.80062 15.5383 9.80062H13.4449C12.9716 9.80062 12.5879 9.41691 12.5879 8.94357V6.82457Z" fill="#8253DD"/>
    <path d="M12.5879 12.064C12.5879 11.5906 12.9716 11.2069 13.4449 11.2069H15.5383C16.0116 11.2069 16.3954 11.5906 16.3954 12.064V14.183C16.3954 14.6563 16.0116 15.04 15.5383 15.04H13.4449C12.9716 15.04 12.5879 14.6563 12.5879 14.183V12.064Z" fill="#8253DD"/>
    <path d="M6.83691 6.82457C6.83691 6.35124 7.22063 5.96753 7.69396 5.96753H9.78733C10.2607 5.96753 10.6444 6.35124 10.6444 6.82457V8.94357C10.6444 9.41691 10.2607 9.80062 9.78733 9.80062H7.69396C7.22062 9.80062 6.83691 9.41691 6.83691 8.94357V6.82457Z" fill="#8253DD"/>
    <path d="M6.83691 12.064C6.83691 11.5906 7.22063 11.2069 7.69396 11.2069H9.78733C10.2607 11.2069 10.6444 11.5906 10.6444 12.064V14.183C10.6444 14.6563 10.2607 15.04 9.78733 15.04H7.69396C7.22062 15.04 6.83691 14.6563 6.83691 14.183V12.064Z" fill="#8253DD"/>
    <path d="M10.0439 17.8461C10.0439 17.3727 10.4277 16.989 10.901 16.989H12.0905C12.5639 16.989 12.9476 17.3727 12.9476 17.8461V20.8679H10.0439V17.8461Z" fill="#8253DD"/>
</svg>
