<svg width="18" height="19" viewBox="0 0 18 19" fill="none" xmlns="http://www.w3.org/2000/svg">
    <path d="M5.34729 0.698364C2.549 0.698364 0.272766 2.9767 0.272766 5.77572V13.0271C0.272766 15.8254 2.5511 18.1016 5.35012 18.1016H12.6015C15.3998 18.1016 17.676 15.8233 17.676 13.0242V5.77289C17.676 2.9746 15.3977 0.698364 12.5986 0.698364H5.34729ZM14.0503 3.5989C14.4506 3.5989 14.7755 3.92376 14.7755 4.32404C14.7755 4.72431 14.4506 5.04917 14.0503 5.04917C13.65 5.04917 13.3252 4.72431 13.3252 4.32404C13.3252 3.92376 13.65 3.5989 14.0503 3.5989ZM8.97438 5.04917C11.3738 5.04917 13.3252 7.00051 13.3252 9.39998C13.3252 11.7994 11.3738 13.7508 8.97438 13.7508C6.57491 13.7508 4.62357 11.7994 4.62357 9.39998C4.62357 7.00051 6.57491 5.04917 8.97438 5.04917ZM8.97438 6.49944C8.20511 6.49944 7.46735 6.80503 6.92339 7.34899C6.37943 7.89294 6.07384 8.63071 6.07384 9.39998C6.07384 10.1692 6.37943 10.907 6.92339 11.451C7.46735 11.9949 8.20511 12.3005 8.97438 12.3005C9.74365 12.3005 10.4814 11.9949 11.0254 11.451C11.5693 10.907 11.8749 10.1692 11.8749 9.39998C11.8749 8.63071 11.5693 7.89294 11.0254 7.34899C10.4814 6.80503 9.74365 6.49944 8.97438 6.49944V6.49944Z" fill="#9B9B9B"/>
</svg>
