<svg width="219" height="139" viewBox="0 0 219 139" fill="none" xmlns="http://www.w3.org/2000/svg">
    <path d="M192.224 69.8584C187.074 54.0113 176.102 28.339 156.574 11.7789V8.05479C156.564 6.05111 155.764 4.13252 154.347 2.71568C152.93 1.29885 151.012 0.498202 149.009 0.487793L120.886 0.487793L112.171 11.66H134.591C145.325 23.7434 166.002 53.8132 139.978 83.4869H96.7232C93.1447 83.5174 89.6554 82.3706 86.7925 80.223C83.9295 78.0754 81.8518 75.0461 80.8791 71.6016C79.3739 65.857 81.1563 58.805 92.7622 52.4662H99.6147C101.56 52.6744 103.527 52.4711 105.388 51.8692C107.25 51.2672 108.964 50.2803 110.419 48.9725C111.874 47.6648 113.037 46.0654 113.834 44.2783C114.63 42.4913 115.042 40.5566 115.042 38.6C115.042 36.6434 114.63 34.7088 113.834 32.9217C113.037 31.1347 111.874 29.5353 110.419 28.2275C108.964 26.9198 107.25 25.9329 105.388 25.3309C103.527 24.729 101.56 24.5255 99.6147 24.7338H55.2512L33.2674 52.4662H74.5414C42.5362 59.7558 10.6896 79.0893 5.89673 111.061H27.4843C27.3456 114.667 27.9361 118.264 29.2203 121.637C30.5044 125.01 32.4559 128.088 34.9579 130.689C37.4598 133.289 40.4608 135.358 43.781 136.771C47.1012 138.184 50.6724 138.913 54.2807 138.913C57.889 138.913 61.4601 138.184 64.7804 136.771C68.1006 135.358 71.1015 133.289 73.6035 130.689C76.1054 128.088 78.0569 125.01 79.3411 121.637C80.6253 118.264 81.2157 114.667 81.0771 111.061H148.692C148.692 118.174 151.517 124.996 156.546 130.026C161.575 135.056 168.396 137.882 175.508 137.882C182.62 137.882 189.441 135.056 194.47 130.026C199.499 124.996 202.324 118.174 202.324 111.061H218.367C216.703 87.6071 204.582 75.801 192.224 69.8584Z" fill="#58388D"/>
    <path d="M43.6852 24.6545H22.8898L0.866455 52.5057H21.6619L43.6852 24.6545Z" fill="#58388D"/>
    <path d="M54.2607 95.4117C51.127 95.4117 48.0637 96.3411 45.4581 98.0824C42.8526 99.8237 40.8218 102.299 39.6226 105.194C38.4234 108.09 38.1096 111.276 38.7209 114.35C39.3323 117.424 40.8414 120.248 43.0572 122.464C45.273 124.681 48.0962 126.19 51.1697 126.801C54.2431 127.413 57.4289 127.099 60.324 125.9C63.2191 124.7 65.6936 122.669 67.4346 120.063C69.1756 117.457 70.1049 114.393 70.1049 111.259C70.1049 107.056 68.4356 103.025 65.4642 100.053C62.4929 97.0813 58.4628 95.4117 54.2607 95.4117Z" fill="#F3F3F3"/>
    <path d="M175.548 95.4117C172.414 95.4117 169.351 96.3411 166.745 98.0824C164.14 99.8237 162.109 102.299 160.91 105.194C159.71 108.09 159.397 111.276 160.008 114.35C160.619 117.424 162.128 120.248 164.344 122.464C166.56 124.681 169.383 126.19 172.457 126.801C175.53 127.413 178.716 127.099 181.611 125.9C184.506 124.7 186.981 122.669 188.722 120.063C190.463 117.457 191.392 114.393 191.392 111.259C191.392 107.056 189.723 103.025 186.751 100.053C183.78 97.0813 179.75 95.4117 175.548 95.4117Z" fill="#F3F3F3"/>
</svg>
