<svg width="24" height="24" viewBox="0 0 24 24" fill="none" xmlns="http://www.w3.org/2000/svg">
    <path d="M0.680664 10.7591C0.680664 5.91096 0.680664 3.48687 2.1868 1.98074C3.69293 0.474609 6.11701 0.474609 10.9652 0.474609H13.4336C18.2817 0.474609 20.7058 0.474609 22.212 1.98074C23.7181 3.48687 23.7181 5.91096 23.7181 10.7591V13.2275C23.7181 18.0757 23.7181 20.4998 22.212 22.0059C20.7058 23.512 18.2817 23.512 13.4336 23.512H10.9652C6.11701 23.512 3.69293 23.512 2.1868 22.0059C0.680664 20.4998 0.680664 18.0757 0.680664 13.2275V10.7591Z" fill="#8253DD"/>
    <path fill-rule="evenodd" clip-rule="evenodd" d="M6.65031 18.4998C6.38217 18.7676 5.94782 18.7674 5.67986 18.4995C5.41159 18.2312 5.41182 17.7961 5.68041 17.5281L17.7536 5.48188C18.0196 5.21651 18.4499 5.21567 18.7169 5.48C18.9862 5.74657 18.9871 6.18136 18.719 6.44909L6.65031 18.4998ZM16.2924 19.2758C15.658 19.2758 15.0722 19.1204 14.5349 18.8097C14.0041 18.499 13.5801 18.075 13.2629 17.5378C12.9521 17.0004 12.7968 16.4146 12.7968 15.7803C12.7968 15.1588 12.9554 14.5794 13.2726 14.0422C13.5962 13.5049 14.0267 13.0777 14.564 12.7605C15.1013 12.4433 15.6774 12.2847 16.2924 12.2847C16.9267 12.2847 17.5093 12.44 18.0402 12.7507C18.5774 13.0615 19.0014 13.4855 19.3121 14.0228C19.6293 14.56 19.7879 15.1458 19.7879 15.7803C19.7879 16.4146 19.6293 17.0004 19.3121 17.5378C19.0014 18.075 18.5774 18.499 18.0402 18.8097C17.5093 19.1204 16.9267 19.2758 16.2924 19.2758ZM8.1069 11.7021C7.47251 11.7021 6.8867 11.5467 6.3494 11.236C5.81858 10.9253 5.39459 10.5013 5.07741 9.96399C4.76669 9.42671 4.61133 8.8409 4.61133 8.20648C4.61133 7.5851 4.76993 7.00571 5.08711 6.46844C5.41078 5.93117 5.84126 5.5039 6.37853 5.18675C6.91581 4.86954 7.49195 4.71094 8.1069 4.71094C8.74129 4.71094 9.32389 4.8663 9.85467 5.17702C10.392 5.48774 10.816 5.91171 11.1267 6.44903C11.4439 6.98631 11.6025 7.57212 11.6025 8.20648C11.6025 8.8409 11.4439 9.42671 11.1267 9.96399C10.816 10.5013 10.392 10.9253 9.85467 11.236C9.32389 11.5467 8.74129 11.7021 8.1069 11.7021Z" fill="white"/>
</svg>
