<svg width="171" height="108" viewBox="0 0 171 108" fill="none" xmlns="http://www.w3.org/2000/svg">
    <g filter="url(#filter0_d_233_191)">
        <rect x="15.4658" y="27.5854" width="132.526" height="64.9898" rx="7.32551" transform="rotate(-7.56271 15.4658 27.5854)" fill="#8253DD"/>
        <rect x="16.4565" y="28.3438" width="130.762" height="63.2254" rx="6.44329" transform="rotate(-7.56271 16.4565 28.3438)" stroke="#8253DD" stroke-width="1.76444"/>
    </g>
    <path d="M36.588 71.3235C36.3897 71.3498 36.1888 71.3563 35.9853 71.343L35.6905 69.1224C35.894 69.1358 36.0949 69.1293 36.2932 69.103C36.6897 69.0503 36.9735 68.8579 37.1446 68.5259C37.3307 68.2053 37.5143 67.663 37.6953 66.8992L31.8592 56.9811L34.7935 56.5915L38.6118 63.4688L40.2655 55.865L42.9618 55.507L40.3124 66.5518C40.1198 67.3306 39.9265 68.0019 39.7324 68.5656C39.5532 69.1409 39.3269 69.6148 39.0536 69.9873C38.782 70.3731 38.4518 70.6725 38.0632 70.8855C37.6745 71.0985 37.1828 71.2445 36.588 71.3235ZM44.3512 55.3226L53.8677 54.0591L55.2627 64.5669L52.6457 64.9143L51.5402 56.5874L47.2577 57.156L48.3633 65.4829L45.7462 65.8304L44.3512 55.3226ZM60.818 64.0714C60.2497 64.1469 59.7369 64.1343 59.2797 64.0336C58.8207 63.9197 58.4199 63.7375 58.0773 63.4871C57.7329 63.2234 57.4551 62.9039 57.2439 62.5284C57.0309 62.1397 56.8928 61.7075 56.8296 61.2317C56.5488 59.1169 57.6641 57.8928 60.1754 57.5594L63.3079 57.1435L63.2421 56.6478C63.1508 55.9605 62.9282 55.4991 62.5741 55.2637C62.2333 55.0265 61.7258 54.9526 61.0517 55.0421C60.4569 55.1211 60.0414 55.2839 59.8051 55.5304C59.5671 55.7638 59.4485 56.0351 59.4492 56.3444L56.8321 56.6918C56.7989 56.2389 56.8551 55.8011 57.0007 55.3782C57.1595 54.9536 57.4056 54.578 57.7388 54.2513C58.0835 53.9096 58.5163 53.6235 59.0371 53.3929C59.5562 53.1492 60.166 52.9808 60.8666 52.8878C61.5407 52.7983 62.1583 52.7902 62.7195 52.8637C63.2939 52.9354 63.7947 53.111 64.2219 53.3905C64.6606 53.6551 65.0198 54.0311 65.2997 54.5185C65.5797 55.0059 65.7679 55.6131 65.8644 56.34L66.3987 60.3647C66.4724 60.9198 66.544 61.408 66.6133 61.8292C66.6942 62.2354 66.7874 62.6333 66.8929 63.0228L64.4543 63.3466C64.3628 63.0628 64.3008 62.8491 64.2683 62.7055C64.2472 62.5469 64.2165 62.3156 64.1761 62.0116C63.9415 62.4731 63.5479 62.902 62.9952 63.2982C62.4558 63.6926 61.73 63.9504 60.818 64.0714ZM61.3624 61.9413C61.6796 61.8991 61.985 61.8183 62.2784 61.6986C62.5702 61.5657 62.8236 61.3976 63.0387 61.1941C63.252 60.9775 63.413 60.7208 63.5215 60.4239C63.63 60.127 63.6597 59.7936 63.6106 59.4235L63.5448 58.9278L60.9079 59.2779C60.4057 59.3446 60.025 59.5162 59.7658 59.7927C59.518 60.0543 59.4205 60.3833 59.4731 60.7798C59.5293 61.2028 59.7194 61.5205 60.0435 61.733C60.3677 61.9456 60.8073 62.015 61.3624 61.9413ZM67.6429 52.2302L70.2599 51.8828L70.8074 56.0066L71.7987 55.875L74.463 51.3247L77.3576 50.9404L74.0531 56.4432L78.951 61.4219L75.8185 61.8378L72.0725 57.9369L71.0812 58.0685L71.655 62.3905L69.038 62.738L67.6429 52.2302ZM84.8444 60.8815C84.1307 60.9763 83.4359 60.9609 82.7602 60.8355C82.0959 60.695 81.4961 60.4316 80.9606 60.0454C80.4251 59.6592 79.9738 59.1475 79.6067 58.5103C79.2397 57.873 78.9956 57.0984 78.8745 56.1864L78.8219 55.7899C78.7078 54.9308 78.7466 54.1589 78.9382 53.4744C79.1297 52.7899 79.4345 52.198 79.8524 51.6987C80.2703 51.1993 80.7825 50.8018 81.3888 50.5061C82.0066 50.1954 82.6724 49.9927 83.3861 49.8979C84.0999 49.8032 84.7889 49.826 85.4531 49.9665C86.1157 50.0937 86.7138 50.3439 87.2475 50.7169C87.7945 51.0881 88.2497 51.5791 88.6133 52.1899C88.9768 52.8007 89.2156 53.5357 89.3297 54.3948L89.3823 54.7913C89.5017 55.6901 89.4673 56.495 89.2792 57.2059C89.0911 57.9168 88.7824 58.5295 88.353 59.0438C87.9369 59.5563 87.4265 59.9671 86.8219 60.276C86.2173 60.5849 85.5581 60.7868 84.8444 60.8815ZM84.5496 58.661C85.2898 58.5628 85.8693 58.2168 86.2881 57.6232C86.7202 57.0278 86.866 56.2014 86.7256 55.144L86.673 54.7475C86.5449 53.7827 86.1964 53.0824 85.6274 52.6469C85.07 52.1963 84.4211 52.0202 83.681 52.1184C82.9276 52.2185 82.3406 52.5587 81.92 53.1391C81.4976 53.7063 81.3505 54.4723 81.4786 55.4372L81.5312 55.8337C81.6734 56.9043 82.0241 57.6715 82.5833 58.1352C83.1408 58.5858 83.7962 58.7611 84.5496 58.661ZM90.5474 49.1893L95.8211 48.4891C96.4952 48.3996 97.0798 48.396 97.5749 48.4782C98.0815 48.5454 98.5101 48.6836 98.8606 48.8926C99.2112 49.1016 99.482 49.3683 99.673 49.6926C99.864 50.017 99.9867 50.384 100.041 50.7937C100.106 51.2828 100.015 51.7656 99.7694 52.2421C99.5347 52.7037 99.1693 53.0414 98.6732 53.2552C99.3419 53.3278 99.8845 53.5651 100.301 53.9671C100.729 54.3542 100.982 54.8451 101.061 55.4399C101.183 56.3519 100.962 57.1209 100.399 57.7471C99.8369 58.3732 98.908 58.7723 97.6127 58.9442L91.9424 59.6971L90.5474 49.1893ZM96.8182 56.9111C97.413 56.8322 97.8377 56.6883 98.0925 56.4797C98.3587 56.256 98.4655 55.9459 98.4128 55.5494C98.3602 55.1529 98.1837 54.8871 97.8833 54.7522C97.5944 54.6022 97.1393 54.5685 96.5181 54.651L93.9804 54.9879L94.2805 57.2481L96.8182 56.9111ZM96.0024 52.7422C96.6104 52.6615 97.0154 52.5203 97.2172 52.3187C97.4323 52.1152 97.5162 51.8351 97.4688 51.4782C97.4232 51.1346 97.27 50.8926 97.0093 50.7524C96.7468 50.5989 96.3182 50.5617 95.7234 50.6407L93.4434 50.9434L93.7224 53.0449L96.0024 52.7422ZM106.53 58.0024C105.962 58.0779 105.449 58.0652 104.992 57.9645C104.533 57.8506 104.132 57.6685 103.789 57.418C103.445 57.1544 103.167 56.8349 102.956 56.4594C102.743 56.0707 102.605 55.6385 102.542 55.1626C102.261 53.0479 103.376 51.8238 105.888 51.4903L109.02 51.0745L108.954 50.5788C108.863 49.8915 108.64 49.4301 108.286 49.1947C107.945 48.9575 107.438 48.8836 106.764 48.9731C106.169 49.0521 105.754 49.2148 105.517 49.4614C105.279 49.6948 105.161 49.9661 105.161 50.2754L102.544 50.6228C102.511 50.1699 102.567 49.732 102.713 49.3092C102.872 48.8846 103.118 48.5089 103.451 48.1822C103.796 47.8406 104.228 47.5545 104.749 47.3239C105.268 47.0801 105.878 46.9117 106.579 46.8187C107.253 46.7292 107.87 46.7212 108.432 46.7947C109.006 46.8663 109.507 47.042 109.934 47.3215C110.373 47.5861 110.732 47.9621 111.012 48.4495C111.292 48.9369 111.48 49.544 111.577 50.271L112.111 54.2957C112.185 54.8508 112.256 55.339 112.326 55.7602C112.406 56.1664 112.5 56.5643 112.605 56.9538L110.166 57.2775C110.075 56.9938 110.013 56.7801 109.98 56.6364C109.959 56.4778 109.929 56.2465 109.888 55.9425C109.654 56.4041 109.26 56.833 108.707 57.2291C108.168 57.6236 107.442 57.8813 106.53 58.0024ZM107.075 55.8722C107.392 55.8301 107.697 55.7492 107.991 55.6296C108.282 55.4967 108.536 55.3285 108.751 55.1251C108.964 54.9085 109.125 54.6517 109.234 54.3549C109.342 54.058 109.372 53.7245 109.323 53.3544L109.257 52.8588L106.62 53.2089C106.118 53.2756 105.737 53.4472 105.478 53.7237C105.23 53.9852 105.133 54.3143 105.185 54.7108C105.241 55.1337 105.432 55.4515 105.756 55.664C106.08 55.8765 106.519 55.9459 107.075 55.8722ZM113.355 46.1612L115.972 45.8137L116.512 49.8781L120.992 49.2832L120.453 45.2188L123.07 44.8714L124.465 55.3792L121.848 55.7266L121.282 51.464L116.801 52.0589L117.367 56.3215L114.75 56.669L113.355 46.1612ZM131.641 54.6686C130.927 54.7633 130.232 54.748 129.557 54.6225C128.892 54.482 128.292 54.2187 127.757 53.8325C127.221 53.4462 126.77 52.9345 126.403 52.2973C126.036 51.66 125.792 50.8854 125.671 49.9734L125.618 49.5769C125.504 48.7178 125.543 47.946 125.735 47.2615C125.926 46.577 126.231 45.985 126.649 45.4857C127.067 44.9864 127.579 44.5888 128.185 44.2931C128.803 43.9824 129.469 43.7797 130.183 43.685C130.896 43.5902 131.585 43.613 132.25 43.7535C132.912 43.8808 133.51 44.1309 134.044 44.5039C134.591 44.8751 135.046 45.3661 135.41 45.9769C135.773 46.5877 136.012 47.3227 136.126 48.1818L136.179 48.5784C136.298 49.4771 136.264 50.282 136.076 50.9929C135.888 51.7039 135.579 52.3165 135.149 52.8308C134.733 53.3434 134.223 53.7541 133.618 54.063C133.014 54.372 132.355 54.5738 131.641 54.6686ZM131.346 52.4481C132.086 52.3498 132.666 52.0038 133.085 51.4102C133.517 50.8148 133.662 49.9885 133.522 48.9311L133.469 48.5346C133.341 47.5697 132.993 46.8695 132.424 46.4339C131.866 45.9833 131.218 45.8072 130.477 45.9055C129.724 46.0055 129.137 46.3457 128.716 46.9261C128.294 47.4933 128.147 48.2593 128.275 49.2242L128.328 49.6207C128.47 50.6913 128.82 51.4585 129.38 51.9223C129.937 52.3728 130.593 52.5481 131.346 52.4481ZM137.511 39.5243L140.128 39.1768L141.365 48.495L138.748 48.8425L137.511 39.5243ZM140.654 53.4719C140.191 53.5334 139.773 53.4208 139.399 53.1342C139.024 52.8477 138.806 52.4731 138.745 52.0105C138.68 51.5214 138.792 51.0964 139.08 50.7353C139.368 50.3742 139.744 50.1629 140.206 50.1015C140.669 50.0401 141.087 50.1461 141.459 50.4194C141.832 50.6928 142.05 51.0739 142.115 51.563C142.177 52.0256 142.064 52.444 141.778 52.8184C141.491 53.1927 141.117 53.4105 140.654 53.4719Z" fill="white"/>
    <path d="M6.22757 28.1343L82.6381 18.1652L154.579 9.05701L156.33 21.2535C156.33 21.2535 85.3742 18.1899 82.6381 18.1652L7.91874 40.8359L6.22757 28.1343Z" fill="#A786E7"/>
    <path d="M85.0527 18.4561C85.3692 19.535 84.7511 20.6662 83.6721 20.9827C82.5932 21.2991 81.462 20.681 81.1455 19.602L85.0527 18.4561ZM81.3376 17.318C82.0809 16.4744 83.3674 16.3931 84.211 17.1365C85.0546 17.8798 85.1359 19.1663 84.3926 20.0099L81.3376 17.318ZM75.319 9.49458L74.1116 11.1338L75.319 9.49458ZM66.0364 11.7852C65.6346 13.7407 66.3688 15.0939 67.5707 16.1601C68.8538 17.2984 70.573 17.9826 71.6035 18.2725L70.5009 22.1921C69.1581 21.8144 66.7889 20.9096 64.8685 19.2061C62.867 17.4305 61.2829 14.689 62.0479 10.9656L66.0364 11.7852ZM71.6035 18.2725C71.921 18.3618 72.6417 18.447 73.7173 18.4535C74.7408 18.4597 75.9333 18.3949 77.1029 18.2633C78.2794 18.1308 79.3776 17.9369 80.2281 17.7019C80.6543 17.5841 80.9755 17.4676 81.196 17.3646C81.4471 17.2472 81.4337 17.2089 81.3376 17.318L84.3926 20.0099C83.9511 20.511 83.3838 20.8365 82.9205 21.0531C82.4266 21.284 81.8731 21.4717 81.3126 21.6266C80.1895 21.9369 78.8658 22.1623 77.5584 22.3095C76.244 22.4574 74.8906 22.5325 73.6926 22.5252C72.5466 22.5183 71.37 22.4366 70.5009 22.1921L71.6035 18.2725ZM81.1455 19.602C81.1824 19.7278 81.1997 19.7412 81.1039 19.5351C81.0343 19.3852 80.9272 19.167 80.7809 18.893C80.4886 18.3452 80.0497 17.592 79.4581 16.7316C78.27 15.0037 76.5002 12.8932 74.1116 11.1338L76.5264 7.85537C79.378 9.95579 81.447 12.4377 82.8132 14.4246C83.4989 15.4217 84.016 16.3065 84.3733 16.9761C84.5519 17.3108 84.6929 17.5961 84.7967 17.8195C84.8743 17.9866 84.9902 18.2429 85.0527 18.4561L81.1455 19.602ZM74.1116 11.1338C73.1177 10.4018 71.0143 9.59556 69.1196 9.60125C68.2034 9.60401 67.5111 9.79673 67.0424 10.1065C66.6273 10.381 66.2291 10.8472 66.0364 11.7852L62.0479 10.9656C62.4386 9.06419 63.4068 7.62889 64.7969 6.70992C66.1334 5.82633 67.685 5.53377 69.1073 5.52949C71.8895 5.52114 74.841 6.61398 76.5264 7.85537L74.1116 11.1338Z" fill="white"/>
    <path d="M80.2927 19.088C80.2687 20.2122 81.1606 21.1429 82.2847 21.1668C83.4089 21.1908 84.3396 20.2989 84.3636 19.1748L80.2927 19.088ZM83.5822 17.02C82.6445 16.3996 81.3813 16.6568 80.7609 17.5945C80.1405 18.5322 80.3977 19.7954 81.3354 20.4158L83.5822 17.02ZM87.3509 7.89713L88.9442 9.1645L87.3509 7.89713ZM96.9096 7.68623C97.8078 9.46916 97.4521 10.9671 96.57 12.31C95.6284 13.7436 94.1473 14.8527 93.2281 15.4015L95.3153 18.8976C96.513 18.1826 98.564 16.691 99.9733 14.5453C101.442 12.309 102.256 9.24914 100.546 5.85438L96.9096 7.68623ZM93.2281 15.4015C92.9449 15.5705 92.2714 15.8408 91.2348 16.1278C90.2483 16.4008 89.0802 16.6494 87.9168 16.8275C86.7465 17.0067 85.6358 17.106 84.7534 17.1011C84.3113 17.0986 83.9708 17.07 83.731 17.028C83.458 16.9802 83.4609 16.9397 83.5822 17.02L81.3354 20.4158C81.8924 20.7843 82.525 20.9505 83.0287 21.0387C83.5657 21.1328 84.149 21.1695 84.7306 21.1728C85.8957 21.1793 87.2324 21.0515 88.5329 20.8524C89.8403 20.6523 91.1664 20.3716 92.321 20.052C93.4255 19.7462 94.54 19.3604 95.3153 18.8976L93.2281 15.4015ZM84.3636 19.1748C84.3608 19.3058 84.3476 19.3232 84.3862 19.0993C84.4143 18.9364 84.4608 18.6979 84.5305 18.3952C84.6697 17.7901 84.8969 16.9484 85.2435 15.9635C85.9396 13.9854 87.0974 11.4863 88.9442 9.1645L85.7576 6.62976C83.5529 9.40148 82.2031 12.3373 81.4026 14.6119C81.001 15.7533 80.7326 16.7424 80.5624 17.482C80.4774 17.8517 80.4157 18.164 80.3738 18.4067C80.3424 18.5883 80.2974 18.8659 80.2927 19.088L84.3636 19.1748ZM88.9442 9.1645C89.7126 8.1985 91.5328 6.87139 93.3634 6.38248C94.2485 6.14608 94.9672 6.15147 95.5004 6.32827C95.9727 6.48487 96.4788 6.83102 96.9096 7.68623L100.546 5.85438C99.6727 4.12074 98.3635 2.9878 96.7818 2.46338C95.261 1.95916 93.6869 2.08158 92.3127 2.44858C89.6248 3.16647 87.0606 4.99162 85.7576 6.62976L88.9442 9.1645Z" fill="white"/>
    <path d="M69.8338 32.0986C69.2832 33.079 69.6316 34.3201 70.612 34.8707C71.5923 35.4213 72.8334 35.0729 73.384 34.0926L69.8338 32.0986ZM82.9655 22.056C84.0368 21.7144 84.6283 20.5691 84.2867 19.4978C83.9451 18.4266 82.7998 17.8351 81.7285 18.1766L82.9655 22.056ZM73.384 34.0926C74.44 32.2124 76.2343 29.3176 78.1569 26.7833C79.1193 25.5147 80.0828 24.3777 80.9752 23.5123C81.9154 22.6005 82.591 22.1754 82.9655 22.056L81.7285 18.1766C80.4228 18.593 79.1883 19.5732 78.1406 20.5893C77.045 21.6517 75.9426 22.9651 74.913 24.3224C72.8514 27.0398 70.957 30.0989 69.8338 32.0986L73.384 34.0926Z" fill="white"/>
    <path d="M97.5531 28.4184C98.3404 29.2211 98.328 30.5101 97.5252 31.2974C96.7225 32.0848 95.4335 32.0723 94.6462 31.2696L97.5531 28.4184ZM82.2559 22.1501C81.1326 22.0999 80.2627 21.1486 80.313 20.0253C80.3632 18.902 81.3145 18.0322 82.4378 18.0824L82.2559 22.1501ZM94.6462 31.2696C93.1362 29.7301 90.6487 27.4038 88.1314 25.4589C86.8714 24.4854 85.6446 23.6392 84.5572 23.0366C83.4117 22.4018 82.6486 22.1677 82.2559 22.1501L82.4378 18.0824C83.8069 18.1436 85.2544 18.7678 86.531 19.4752C87.8658 20.215 89.2727 21.1952 90.6209 22.2368C93.32 24.3222 95.947 26.7809 97.5531 28.4184L94.6462 31.2696Z" fill="white"/>
    <defs>
        <filter id="filter0_d_233_191" x="0.167473" y="0.273957" width="170.524" height="112.463" filterUnits="userSpaceOnUse" color-interpolation-filters="sRGB">
            <feFlood flood-opacity="0" result="BackgroundImageFix"/>
            <feColorMatrix in="SourceAlpha" type="matrix" values="0 0 0 0 0 0 0 0 0 0 0 0 0 0 0 0 0 0 127 0" result="hardAlpha"/>
            <feOffset dy="5.42904"/>
            <feGaussianBlur stdDeviation="8.14356"/>
            <feComposite in2="hardAlpha" operator="out"/>
            <feColorMatrix type="matrix" values="0 0 0 0 0 0 0 0 0 0 0 0 0 0 0 0 0 0 0.25 0"/>
            <feBlend mode="normal" in2="BackgroundImageFix" result="effect1_dropShadow_233_191"/>
            <feBlend mode="normal" in="SourceGraphic" in2="effect1_dropShadow_233_191" result="shape"/>
        </filter>
    </defs>
</svg>
