<svg width="170" height="113" viewBox="0 0 170 113" fill="none" xmlns="http://www.w3.org/2000/svg">
    <g filter="url(#filter0_d_214_1646)">
        <rect x="14.7178" y="27.7005" width="132.526" height="64.9898" rx="7.32551" transform="rotate(-7.56271 14.7178 27.7005)" fill="#8253DD"/>
        <rect x="15.7084" y="28.459" width="130.762" height="63.2254" rx="6.44329" transform="rotate(-7.56271 15.7084 28.459)" stroke="#8253DD" stroke-width="1.76444"/>
    </g>
    <path d="M53.3716 53.6716C53.2328 53.69 53.0922 53.6946 52.9497 53.6852L52.7433 52.1309C52.8858 52.1402 53.0264 52.1357 53.1652 52.1172C53.4428 52.0804 53.6415 51.9457 53.7612 51.7133C53.8915 51.4888 54.02 51.1093 54.1467 50.5746L50.0615 43.6319L52.1154 43.3592L54.7883 48.1733L55.9458 42.8507L57.8333 42.6001L55.9787 50.3314C55.8439 50.8766 55.7086 51.3465 55.5727 51.7411C55.4472 52.1438 55.2888 52.4755 55.0975 52.7363C54.9074 53.0063 54.6763 53.2159 54.4042 53.365C54.1321 53.5141 53.7879 53.6163 53.3716 53.6716ZM58.8058 42.471L65.4674 41.5865L66.4439 48.942L64.612 49.1852L63.8381 43.3564L60.8404 43.7543L61.6143 49.5832L59.7824 49.8264L58.8058 42.471ZM70.3326 48.5952C69.9348 48.648 69.5758 48.6392 69.2558 48.5687C68.9345 48.4889 68.6539 48.3614 68.4141 48.1861C68.1731 48.0016 67.9786 47.7779 67.8307 47.5151C67.6816 47.243 67.5849 46.9404 67.5407 46.6073C67.3442 45.127 68.1249 44.2701 69.8828 44.0367L72.0755 43.7456L72.0295 43.3986C71.9656 42.9175 71.8097 42.5946 71.5619 42.4298C71.3233 42.2637 70.9681 42.212 70.4962 42.2747C70.0799 42.3299 69.789 42.4439 69.6236 42.6165C69.457 42.7798 69.3739 42.9698 69.3744 43.1862L67.5425 43.4295C67.5192 43.1124 67.5586 42.8059 67.6605 42.5099C67.7717 42.2127 67.9439 41.9498 68.1772 41.7211C68.4185 41.4819 68.7214 41.2816 69.086 41.1202C69.4494 40.9496 69.8762 40.8317 70.3666 40.7666C70.8385 40.704 71.2708 40.6983 71.6637 40.7498C72.0658 40.7999 72.4163 40.9229 72.7153 41.1185C73.0224 41.3037 73.2739 41.5669 73.4698 41.9081C73.6658 42.2493 73.7975 42.6743 73.8651 43.1832L74.2391 46.0005C74.2907 46.3891 74.3408 46.7308 74.3893 47.0256C74.4459 47.31 74.5112 47.5885 74.585 47.8611L72.878 48.0878C72.814 47.8891 72.7706 47.7395 72.7478 47.639C72.7331 47.528 72.7116 47.3661 72.6833 47.1533C72.5191 47.4763 72.2435 47.7766 71.8566 48.0539C71.479 48.33 70.971 48.5104 70.3326 48.5952ZM70.7137 47.1041C70.9357 47.0746 71.1495 47.0179 71.3549 46.9342C71.5591 46.8412 71.7365 46.7235 71.8871 46.5811C72.0364 46.4294 72.1491 46.2497 72.2251 46.0419C72.301 45.8341 72.3218 45.6007 72.2874 45.3416L72.2414 44.9946L70.3956 45.2397C70.044 45.2864 69.7775 45.4065 69.596 45.6001C69.4226 45.7831 69.3543 46.0135 69.3912 46.291C69.4305 46.5871 69.5636 46.8095 69.7905 46.9583C70.0174 47.1071 70.3251 47.1556 70.7137 47.1041ZM75.11 40.3063L76.9419 40.0631L77.3252 42.9498L78.0191 42.8576L79.8841 39.6725L81.9103 39.4035L79.5972 43.2554L83.0257 46.7405L80.8329 47.0316L78.2107 44.301L77.5168 44.3931L77.9185 47.4186L76.0866 47.6618L75.11 40.3063ZM87.1511 46.3623C86.6515 46.4286 86.1652 46.4178 85.6921 46.33C85.2272 46.2317 84.8072 46.0473 84.4324 45.777C84.0576 45.5066 83.7417 45.1484 83.4847 44.7023C83.2278 44.2563 83.0569 43.7141 82.9722 43.0757L82.9353 42.7981C82.8555 42.1967 82.8826 41.6564 83.0167 41.1773C83.1508 40.6981 83.3641 40.2838 83.6567 39.9342C83.9492 39.5847 84.3077 39.3064 84.7322 39.0994C85.1646 38.882 85.6307 38.7401 86.1303 38.6737C86.6299 38.6074 87.1122 38.6234 87.5772 38.7217C88.041 38.8108 88.4596 38.9859 88.8333 39.247C89.2161 39.5068 89.5348 39.8506 89.7893 40.2781C90.0438 40.7057 90.2109 41.2201 90.2908 41.8215L90.3276 42.0991C90.4112 42.7282 90.3871 43.2916 90.2555 43.7893C90.1238 44.287 89.9077 44.7158 89.6071 45.0758C89.3158 45.4346 88.9586 45.7221 88.5353 45.9384C88.1121 46.1546 87.6507 46.2959 87.1511 46.3623ZM86.9447 44.8079C87.4628 44.7391 87.8685 44.4969 88.1617 44.0814C88.4641 43.6646 88.5662 43.0862 88.468 42.346L88.4311 42.0684C88.3414 41.393 88.0975 40.9029 87.6992 40.598C87.309 40.2826 86.8548 40.1593 86.3367 40.2281C85.8093 40.2981 85.3984 40.5362 85.104 40.9425C84.8083 41.3396 84.7053 41.8758 84.795 42.5512L84.8319 42.8288C84.9314 43.5782 85.1768 44.1152 85.5683 44.4398C85.9585 44.7552 86.4173 44.8779 86.9447 44.8079ZM91.1432 38.1777L94.8348 37.6875C95.3066 37.6249 95.7158 37.6223 96.0624 37.6799C96.417 37.727 96.717 37.8237 96.9624 37.97C97.2078 38.1163 97.3974 38.303 97.5311 38.53C97.6648 38.757 97.7507 39.014 97.7888 39.3008C97.8342 39.6431 97.7708 39.9811 97.5986 40.3146C97.4343 40.6377 97.1785 40.8741 96.8312 41.0238C97.2993 41.0746 97.6791 41.2408 97.9707 41.5222C98.2703 41.7931 98.4478 42.1367 98.503 42.5531C98.5878 43.1915 98.4333 43.7298 98.0396 44.1681C97.6458 44.6064 96.9956 44.8858 96.0889 45.0061L92.1197 45.5331L91.1432 38.1777ZM95.5327 43.583C95.9491 43.5277 96.2464 43.427 96.4247 43.2809C96.6111 43.1244 96.6858 42.9073 96.649 42.6298C96.6121 42.3522 96.4886 42.1662 96.2783 42.0717C96.0761 41.9667 95.7575 41.9431 95.3227 42.0008L93.5463 42.2367L93.7563 43.8188L95.5327 43.583ZM94.9617 40.6647C95.3873 40.6082 95.6708 40.5094 95.8121 40.3682C95.9626 40.2258 96.0213 40.0297 95.9882 39.7799C95.9562 39.5394 95.849 39.37 95.6665 39.2719C95.4828 39.1644 95.1827 39.1384 94.7664 39.1936L93.1704 39.4055L93.3657 40.8766L94.9617 40.6647ZM102.331 44.3469C101.933 44.3997 101.574 44.3908 101.254 44.3204C100.933 44.2406 100.652 44.1131 100.413 43.9378C100.172 43.7532 99.9771 43.5296 99.8292 43.2667C99.6801 42.9947 99.5835 42.6921 99.5392 42.359C99.3427 40.8787 100.123 40.0218 101.881 39.7884L104.074 39.4973L104.028 39.1503C103.964 38.6692 103.808 38.3463 103.56 38.1814C103.322 38.0154 102.967 37.9637 102.495 38.0263C102.078 38.0816 101.788 38.1956 101.622 38.3682C101.455 38.5315 101.372 38.7214 101.373 38.9379L99.541 39.1811C99.5177 38.8641 99.5571 38.5576 99.659 38.2616C99.7702 37.9644 99.9424 37.7014 100.176 37.4727C100.417 37.2336 100.72 37.0333 101.085 36.8719C101.448 36.7013 101.875 36.5834 102.365 36.5183C102.837 36.4556 103.269 36.45 103.662 36.5014C104.064 36.5516 104.415 36.6745 104.714 36.8702C105.021 37.0554 105.272 37.3186 105.468 37.6598C105.664 38.001 105.796 38.426 105.864 38.9349L106.238 41.7521C106.289 42.1407 106.339 42.4825 106.388 42.7773C106.444 43.0617 106.51 43.3402 106.584 43.6128L104.877 43.8394C104.812 43.6408 104.769 43.4912 104.746 43.3907C104.732 43.2796 104.71 43.1177 104.682 42.9049C104.518 43.228 104.242 43.5282 103.855 43.8056C103.478 44.0817 102.97 44.2621 102.331 44.3469ZM102.712 42.8557C102.934 42.8263 103.148 42.7696 103.353 42.6859C103.558 42.5928 103.735 42.4751 103.886 42.3328C104.035 42.1811 104.148 42.0014 104.224 41.7936C104.3 41.5858 104.32 41.3523 104.286 41.0933L104.24 40.7463L102.394 40.9914C102.042 41.0381 101.776 41.1582 101.595 41.3517C101.421 41.5348 101.353 41.7652 101.39 42.0427C101.429 42.3388 101.562 42.5612 101.789 42.71C102.016 42.8587 102.324 42.9073 102.712 42.8557ZM108.98 37.3631L106.634 37.6745L106.431 36.1479L112.954 35.2819L113.157 36.8085L110.811 37.1199L111.585 42.9487L109.753 43.192L108.98 37.3631ZM114.061 35.1349L115.893 34.8917L116.221 37.362L117.789 37.1538C119.686 36.902 120.742 37.5903 120.959 39.2187C121.007 39.5795 120.995 39.9199 120.925 40.24C120.862 40.5496 120.73 40.8261 120.527 41.0696C120.323 41.3131 120.049 41.519 119.705 41.6872C119.36 41.8554 118.938 41.9726 118.438 42.0389L115.038 42.4904L114.061 35.1349ZM118.034 40.5955C118.479 40.5365 118.783 40.4161 118.947 40.2343C119.11 40.0432 119.17 39.7857 119.127 39.4619C119.084 39.138 118.955 38.9104 118.739 38.7789C118.532 38.6369 118.211 38.5948 117.776 38.6525L116.416 38.8331L116.674 40.7761L118.034 40.5955ZM53.0423 56.3502L56.7339 55.8601C57.2058 55.7975 57.615 55.7949 57.9616 55.8525C58.3162 55.8995 58.6162 55.9962 58.8616 56.1425C59.107 56.2889 59.2965 56.4755 59.4303 56.7026C59.564 56.9296 59.6499 57.1865 59.6879 57.4734C59.7334 57.8157 59.67 58.1536 59.4977 58.4872C59.3335 58.8103 59.0777 59.0467 58.7304 59.1964C59.1985 59.2472 59.5783 59.4133 59.8699 59.6947C60.1695 59.9657 60.3469 60.3093 60.4022 60.7256C60.4869 61.364 60.3325 61.9024 59.9387 62.3407C59.545 62.779 58.8947 63.0583 57.988 63.1787L54.0189 63.7057L53.0423 56.3502ZM57.4319 61.7555C57.8482 61.7003 58.1456 61.5996 58.3239 61.4535C58.5103 61.297 58.585 61.0799 58.5482 60.8023C58.5113 60.5248 58.3877 60.3387 58.1775 60.2443C57.9752 60.1393 57.6567 60.1157 57.2218 60.1734L55.4454 60.4093L55.6555 61.9914L57.4319 61.7555ZM56.8609 58.8373C57.2865 58.7808 57.5699 58.682 57.7112 58.5408C57.8618 58.3984 57.9205 58.2023 57.8873 57.9525C57.8554 57.712 57.7482 57.5426 57.5657 57.4444C57.3819 57.337 57.0819 57.3109 56.6655 57.3662L55.0695 57.5781L55.2649 59.0492L56.8609 58.8373ZM64.4946 54.8298L71.1561 53.9453L72.1327 61.3008L70.3007 61.544L69.5269 55.7152L66.5292 56.1131L67.303 61.942L65.4711 62.1852L64.4946 54.8298ZM77.1455 60.8047C76.6459 60.8711 76.1596 60.8603 75.6866 60.7725C75.2216 60.6741 74.8017 60.4898 74.4268 60.2194C74.052 59.9491 73.7361 59.5909 73.4791 59.1448C73.2222 58.6988 73.0514 58.1565 72.9666 57.5181L72.9297 57.2406C72.8499 56.6392 72.877 56.0989 73.0111 55.6198C73.1452 55.1406 73.3586 54.7263 73.6511 54.3767C73.9436 54.0272 74.3021 53.7489 74.7266 53.5419C75.1591 53.3244 75.6251 53.1825 76.1247 53.1162C76.6243 53.0499 77.1066 53.0659 77.5716 53.1642C78.0354 53.2533 78.4541 53.4283 78.8277 53.6894C79.2106 53.9493 79.5292 54.293 79.7837 54.7206C80.0382 55.1481 80.2054 55.6626 80.2852 56.264L80.3221 56.5416C80.4056 57.1707 80.3815 57.7341 80.2499 58.2318C80.1182 58.7294 79.9021 59.1583 79.6016 59.5183C79.3102 59.8771 78.953 60.1646 78.5298 60.3809C78.1065 60.5971 77.6451 60.7384 77.1455 60.8047ZM76.9391 59.2504C77.4573 59.1816 77.8629 58.9394 78.1561 58.5239C78.4586 58.1071 78.5606 57.5286 78.4624 56.7885L78.4255 56.5109C78.3359 55.8355 78.0919 55.3454 77.6936 55.0404C77.3034 54.7251 76.8492 54.6018 76.3311 54.6706C75.8037 54.7406 75.3928 54.9787 75.0984 55.385C74.8027 55.782 74.6998 56.3183 74.7894 56.9937L74.8263 57.2712C74.9258 58.0207 75.1713 58.5577 75.5627 58.8823C75.953 59.1977 76.4118 59.3204 76.9391 59.2504ZM81.2208 58.5407L82.0535 58.4301C82.1276 58.2791 82.1844 58.0691 82.2241 57.8002C82.2625 57.5221 82.2787 57.2186 82.2727 56.8899C82.2747 56.5507 82.261 56.1994 82.2316 55.8361C82.2103 55.4623 82.1762 55.0997 82.1295 54.7481L81.8347 52.5276L87.5942 51.7629L88.3681 57.5918L89.2702 57.472L89.7032 60.7334L88.0933 60.9471L87.863 59.2123L83.0333 59.8535L83.2637 61.5883L81.6538 61.8021L81.2208 58.5407ZM86.5361 57.835L85.965 53.5327L83.7167 53.8312L83.8457 54.8027C83.8887 55.1265 83.9218 55.447 83.945 55.764C83.9683 56.081 83.9811 56.39 83.9834 56.691C83.9937 56.9815 83.9877 57.2553 83.9653 57.5125C83.943 57.7697 83.9025 57.9963 83.8438 58.1924L86.5361 57.835ZM93.0032 58.6994C92.6054 58.7522 92.2464 58.7433 91.9264 58.6729C91.6051 58.5931 91.3245 58.4656 91.0847 58.2903C90.8436 58.1058 90.6492 57.8821 90.5013 57.6192C90.3522 57.3472 90.2555 57.0446 90.2113 56.7115C90.0148 55.2312 90.7954 54.3743 92.5534 54.1409L94.7461 53.8498L94.7001 53.5028C94.6362 53.0217 94.4803 52.6988 94.2325 52.5339C93.9939 52.3679 93.6386 52.3162 93.1668 52.3789C92.7504 52.4341 92.4596 52.5481 92.2942 52.7207C92.1276 52.884 92.0445 53.0739 92.045 53.2904L90.2131 53.5336C90.1898 53.2166 90.2292 52.9101 90.3311 52.6141C90.4423 52.3169 90.6145 52.0539 90.8478 51.8252C91.089 51.5861 91.392 51.3858 91.7566 51.2244C92.12 51.0538 92.5468 50.9359 93.0372 50.8708C93.509 50.8081 93.9414 50.8025 94.3342 50.8539C94.7363 50.9041 95.0869 51.0271 95.3859 51.2227C95.693 51.4079 95.9445 51.6711 96.1404 52.0123C96.3364 52.3535 96.4681 52.7785 96.5357 53.2874L96.9097 56.1047C96.9613 56.4932 97.0114 56.835 97.0599 57.1298C97.1165 57.4142 97.1817 57.6927 97.2556 57.9653L95.5486 58.192C95.4845 57.9933 95.4411 57.8437 95.4184 57.7432C95.4036 57.6322 95.3821 57.4702 95.3539 57.2574C95.1896 57.5805 94.9141 57.8807 94.5272 58.1581C94.1496 58.4342 93.6416 58.6146 93.0032 58.6994ZM93.3843 57.2082C93.6063 57.1788 93.8201 57.1221 94.0255 57.0384C94.2297 56.9454 94.4071 56.8276 94.5577 56.6853C94.707 56.5336 94.8197 56.3539 94.8956 56.1461C94.9716 55.9383 94.9924 55.7048 94.958 55.4458L94.9119 55.0988L93.0661 55.3439C92.7146 55.3906 92.4481 55.5107 92.2666 55.7043C92.0932 55.8873 92.0249 56.1177 92.0618 56.3952C92.1011 56.6913 92.2342 56.9137 92.4611 57.0625C92.688 57.2112 92.9957 57.2598 93.3843 57.2082ZM97.7806 50.4105L99.4876 50.1839L99.6313 51.2664C99.7722 50.9087 100.025 50.5786 100.39 50.276C100.754 49.9733 101.242 49.7815 101.853 49.7004C102.833 49.5702 103.637 49.7742 104.264 50.3124C104.899 50.84 105.297 51.7099 105.458 52.9219L105.495 53.1995C105.663 54.467 105.507 55.4528 105.026 56.1569C104.553 56.8505 103.836 57.2612 102.873 57.3889C102.374 57.4553 101.915 57.4078 101.499 57.2466C101.09 57.0749 100.742 56.8293 100.455 56.5096L100.958 60.2984L99.1257 60.5416L97.7806 50.4105ZM102.237 55.8917C102.718 55.8278 103.096 55.594 103.372 55.1901C103.647 54.7771 103.735 54.1958 103.635 53.4464L103.598 53.1688C103.506 52.4749 103.28 51.9777 102.92 51.6771C102.559 51.3673 102.128 51.2456 101.629 51.3119C101.101 51.3819 100.682 51.5929 100.371 51.9449C100.068 52.2864 99.9565 52.7579 100.036 53.3593L100.147 54.192C100.234 54.8489 100.466 55.3171 100.842 55.5967C101.226 55.8659 101.691 55.9642 102.237 55.8917ZM110.648 56.3567C110.149 56.423 109.662 56.4123 109.189 56.3244C108.724 56.2261 108.305 56.0417 107.93 55.7714C107.555 55.501 107.239 55.1428 106.982 54.6968C106.725 54.2507 106.554 53.7085 106.469 53.0701L106.433 52.7925C106.353 52.1911 106.38 51.6509 106.514 51.1717C106.648 50.6926 106.861 50.2782 107.154 49.9287C107.447 49.5791 107.805 49.3009 108.229 49.0939C108.662 48.8764 109.128 48.7345 109.628 48.6681C110.127 48.6018 110.61 48.6178 111.075 48.7161C111.538 48.8052 111.957 48.9803 112.331 49.2414C112.713 49.5013 113.032 49.845 113.287 50.2725C113.541 50.7001 113.708 51.2146 113.788 51.816L113.825 52.0935C113.908 52.7227 113.884 53.2861 113.753 53.7837C113.621 54.2814 113.405 54.7102 113.104 55.0702C112.813 55.429 112.456 55.7166 112.033 55.9328C111.609 56.1491 111.148 56.2903 110.648 56.3567ZM110.442 54.8023C110.96 54.7335 111.366 54.4914 111.659 54.0758C111.961 53.6591 112.064 53.0806 111.965 52.3404L111.928 52.0629C111.839 51.3875 111.595 50.8973 111.197 50.5924C110.806 50.277 110.352 50.1537 109.834 50.2225C109.307 50.2925 108.896 50.5307 108.601 50.937C108.306 51.334 108.203 51.8702 108.292 52.5456L108.329 52.8232C108.429 53.5726 108.674 54.1096 109.066 54.4343C109.456 54.7497 109.915 54.8723 110.442 54.8023ZM114.64 48.1721L116.472 47.9289L116.856 50.8155L117.55 50.7234L119.415 47.5382L121.441 47.2692L119.128 51.1212L122.556 54.6063L120.363 54.8974L117.741 52.1667L117.047 52.2589L117.449 55.2843L115.617 55.5275L114.64 48.1721ZM78.6639 70.6949L76.5108 70.9808L76.3812 70.0053L78.5344 69.7195L78.2438 67.5307L79.2906 67.3917L79.5812 69.5805L81.7343 69.2946L81.8638 70.2701L79.7107 70.5559L80.0013 72.7447L78.9545 72.8837L78.6639 70.6949ZM86.1877 73.6787C85.7356 73.7387 85.3233 73.7329 84.9506 73.6613C84.5848 73.5808 84.2648 73.4497 83.9905 73.2683C83.7163 73.0868 83.4967 72.8617 83.3319 72.5931C83.1661 72.3165 83.0611 72.0117 83.0168 71.6786L84.135 71.5301C84.1887 71.9346 84.3717 72.2492 84.684 72.4741C84.9953 72.691 85.4523 72.7595 86.055 72.6794C86.6577 72.5994 87.0805 72.4101 87.3233 72.1116C87.5651 71.8051 87.6575 71.4377 87.6007 71.0095C87.5417 70.5654 87.3516 70.2275 87.0303 69.9957C86.7159 69.755 86.2613 69.6741 85.6665 69.7531L84.7743 69.8716L84.648 68.9199L85.5401 68.8015C86.1111 68.7257 86.5077 68.5519 86.7299 68.2803C86.951 68.0008 87.0332 67.6469 86.9763 67.2187C86.9216 66.8063 86.756 66.5014 86.4796 66.3041C86.2022 66.0988 85.77 66.0351 85.1832 66.1131C84.6201 66.1878 84.2241 66.3655 83.995 66.6461C83.7728 66.9177 83.6854 67.2319 83.7328 67.5888L82.6146 67.7372C82.5736 67.4279 82.5941 67.1266 82.6762 66.8333C82.7662 66.5389 82.9131 66.2773 83.1167 66.0485C83.3273 65.8107 83.5912 65.6102 83.9085 65.447C84.2337 65.2828 84.6144 65.1717 85.0505 65.1138C85.4867 65.0559 85.8832 65.0638 86.24 65.1375C86.5968 65.2112 86.9033 65.3319 87.1597 65.4996C87.4239 65.6663 87.6334 65.8765 87.7881 66.1304C87.9429 66.3842 88.0397 66.6578 88.0787 66.9513C88.1419 67.4271 88.0687 67.8484 87.8591 68.2152C87.6565 68.5729 87.3381 68.8493 86.9039 69.0441C87.3998 69.1316 87.8091 69.3274 88.1319 69.6316C88.4548 69.9357 88.6557 70.3852 88.7346 70.98C88.7767 71.2972 88.7533 71.607 88.6643 71.9093C88.5743 72.2037 88.4206 72.4743 88.2032 72.7211C87.9926 72.9589 87.7173 73.1649 87.3773 73.3391C87.0362 73.5055 86.6397 73.6187 86.1877 73.6787ZM93.0272 72.7706C92.5751 72.8306 92.1747 72.8233 91.8258 72.7485C91.4759 72.6659 91.1728 72.5407 90.9165 72.3729C90.667 72.1962 90.466 71.9889 90.3134 71.7509C90.1607 71.5129 90.0586 71.2602 90.0069 70.9926L91.1251 70.8442C91.2047 71.1403 91.3986 71.3849 91.7067 71.578C92.0228 71.7701 92.4187 71.8346 92.8945 71.7714C93.4338 71.6998 93.8359 71.4769 94.101 71.1028C94.365 70.7207 94.457 70.2283 94.377 69.6256C94.3317 69.2846 94.2412 68.998 94.1055 68.7659C93.9777 68.5326 93.8205 68.3518 93.634 68.2232C93.4553 68.0936 93.2582 68.0068 93.0425 67.9628C92.8269 67.9188 92.608 67.9115 92.386 67.941C91.9577 67.9978 91.6312 68.1219 91.4064 68.3131C91.1896 68.5033 91.0314 68.71 90.9319 68.933L89.9326 69.0657L89.3483 64.6643L94.285 64.0089L94.4145 64.9843L90.596 65.4913L90.9039 67.8109C91.2563 67.3041 91.7656 67.0065 92.4317 66.9181C93.2565 66.8086 93.94 66.972 94.4821 67.4085C95.0322 67.8439 95.3699 68.5334 95.4952 69.4771C95.5541 69.9212 95.5365 70.3352 95.4422 70.7189C95.3547 71.0937 95.201 71.4248 94.9809 71.7123C94.7687 71.9987 94.4932 72.233 94.1542 72.4152C93.8232 72.5963 93.4475 72.7148 93.0272 72.7706ZM100.326 70.3004L99.2559 70.4426L99.1422 69.5861L100.213 69.444L100.08 68.4447L99.0095 68.5869L98.88 67.6114L99.9506 67.4693L99.401 63.3296L102.018 62.9822C102.51 62.9169 102.946 62.9235 103.328 63.0019C103.718 63.0793 104.051 63.2167 104.327 63.414C104.61 63.6024 104.836 63.8468 105.005 64.1471C105.173 64.4396 105.282 64.7722 105.332 65.1449C105.381 65.5176 105.363 65.871 105.279 66.2051C105.193 66.5312 105.038 66.8261 104.815 67.0898C104.599 67.3445 104.312 67.56 103.957 67.7364C103.609 67.9117 103.189 68.032 102.697 68.0973L101.198 68.2963L101.331 69.2955L104.138 68.9228L104.252 69.7793L101.445 70.152L101.625 71.5081L100.507 71.6565L100.326 70.3004ZM102.508 67.1297C103.19 67.0392 103.659 66.8317 103.914 66.5072C104.178 66.1817 104.278 65.7771 104.213 65.2933C104.149 64.8096 103.947 64.445 103.608 64.1995C103.277 63.9529 102.77 63.875 102.088 63.9655L100.649 64.1566L101.069 67.3208L102.508 67.1297Z" fill="white"/>
    <path d="M5.47952 28.2494L81.89 18.2804L153.831 9.17218L155.582 21.3687C155.582 21.3687 84.6262 18.3051 81.89 18.2804L7.17069 40.951L5.47952 28.2494Z" fill="#8253DD"/>
    <path d="M84.3047 18.5712C84.6211 19.6502 84.003 20.7814 82.9241 21.0978C81.8451 21.4143 80.7139 20.7961 80.3975 19.7172L84.3047 18.5712ZM80.5895 17.4332C81.3329 16.5896 82.6194 16.5083 83.463 17.2516C84.3066 17.995 84.3879 19.2815 83.6445 20.1251L80.5895 17.4332ZM74.5709 9.60974L73.3635 11.2489L74.5709 9.60974ZM65.2883 11.9003C64.8865 13.8559 65.6208 15.2091 66.8226 16.2753C68.1057 17.4135 69.825 18.0978 70.8555 18.3877L69.7528 22.3073C68.4101 21.9296 66.0408 21.0248 64.1205 19.3212C62.119 17.5456 60.5348 14.8042 61.2999 11.0808L65.2883 11.9003ZM70.8555 18.3877C71.173 18.477 71.8937 18.5622 72.9692 18.5687C73.9928 18.5749 75.1853 18.5101 76.3549 18.3784C77.5313 18.246 78.6295 18.0521 79.48 17.8171C79.9062 17.6993 80.2274 17.5828 80.4479 17.4797C80.699 17.3623 80.6857 17.324 80.5895 17.4332L83.6445 20.1251C83.203 20.6261 82.6357 20.9517 82.1725 21.1682C81.6786 21.3992 81.1251 21.5869 80.5645 21.7418C79.4414 22.0521 78.1177 22.2775 76.8103 22.4246C75.496 22.5726 74.1426 22.6476 72.9446 22.6404C71.7985 22.6334 70.622 22.5518 69.7528 22.3073L70.8555 18.3877ZM80.3975 19.7172C80.4344 19.8429 80.4516 19.8563 80.3559 19.6502C80.2863 19.5004 80.1791 19.2822 80.0329 19.0082C79.7406 18.4604 79.3016 17.7071 78.7101 16.8468C77.5219 15.1189 75.7522 13.0084 73.3635 11.2489L75.7783 7.97053C78.6299 10.0709 80.699 12.5528 82.0652 14.5398C82.7508 15.5368 83.2679 16.4217 83.6252 17.0913C83.8038 17.4259 83.9449 17.7113 84.0486 17.9346C84.1263 18.1018 84.2422 18.3581 84.3047 18.5712L80.3975 19.7172ZM73.3635 11.2489C72.3697 10.5169 70.2663 9.71072 68.3715 9.71641C67.4554 9.71916 66.763 9.91189 66.2944 10.2217C65.8793 10.4961 65.4811 10.9623 65.2883 11.9003L61.2999 11.0808C61.6906 9.17935 62.6588 7.74405 64.0489 6.82507C65.3854 5.94149 66.937 5.64892 68.3593 5.64465C71.1414 5.6363 74.093 6.72914 75.7783 7.97053L73.3635 11.2489Z" fill="white"/>
    <path d="M79.5447 19.2032C79.5207 20.3273 80.4126 21.258 81.5367 21.282C82.6608 21.306 83.5915 20.4141 83.6155 19.29L79.5447 19.2032ZM82.8341 17.1352C81.8964 16.5147 80.6333 16.772 80.0129 17.7097C79.3924 18.6474 79.6497 19.9105 80.5874 20.531L82.8341 17.1352ZM86.6028 8.0123L88.1962 9.27967L86.6028 8.0123ZM96.1616 7.8014C97.0597 9.58434 96.704 11.0822 95.822 12.4251C94.8803 13.8588 93.3992 14.9679 92.48 15.5166L94.5672 19.0128C95.7649 18.2978 97.816 16.8061 99.2253 14.6605C100.694 12.4241 101.508 9.36431 99.798 5.96955L96.1616 7.8014ZM92.48 15.5166C92.1968 15.6857 91.5233 15.956 90.4867 16.2429C89.5003 16.516 88.3321 16.7646 87.1687 16.9427C85.9985 17.1218 84.8878 17.2212 84.0054 17.2162C83.5632 17.2138 83.2227 17.1851 82.983 17.1431C82.7099 17.0953 82.7128 17.0549 82.8341 17.1352L80.5874 20.531C81.1443 20.8995 81.7769 21.0657 82.2806 21.1539C82.8177 21.2479 83.401 21.2847 83.9825 21.288C85.1477 21.2945 86.4844 21.1667 87.7849 20.9676C89.0923 20.7675 90.4184 20.4868 91.573 20.1672C92.6775 19.8614 93.792 19.4756 94.5672 19.0128L92.48 15.5166ZM83.6155 19.29C83.6127 19.4209 83.5995 19.4384 83.6382 19.2145C83.6663 19.0516 83.7128 18.813 83.7825 18.5103C83.9217 17.9053 84.1489 17.0636 84.4955 16.0787C85.1916 14.1006 86.3493 11.6014 88.1962 9.27967L85.0095 6.74493C82.8048 9.51666 81.4551 12.4524 80.6546 14.727C80.2529 15.8685 79.9846 16.8576 79.8144 17.5972C79.7293 17.9669 79.6676 18.2792 79.6257 18.5218C79.5944 18.7035 79.5494 18.9811 79.5447 19.2032L83.6155 19.29ZM88.1962 9.27967C88.9645 8.31367 90.7847 6.98657 92.6153 6.49765C93.5005 6.26125 94.2191 6.26664 94.7524 6.44344C95.2247 6.60005 95.7308 6.9462 96.1616 7.8014L99.798 5.96955C98.9247 4.23591 97.6155 3.10298 96.0338 2.57855C94.513 2.07433 92.9388 2.19676 91.5647 2.56376C88.8768 3.28164 86.3126 5.10679 85.0095 6.74493L88.1962 9.27967Z" fill="white"/>
    <path d="M69.0858 32.2138C68.5352 33.1942 68.8836 34.4353 69.8639 34.9859C70.8443 35.5365 72.0854 35.1881 72.636 34.2077L69.0858 32.2138ZM82.2175 22.1712C83.2887 21.8296 83.8802 20.6842 83.5387 19.613C83.1971 18.5417 82.0517 17.9502 80.9805 18.2918L82.2175 22.1712ZM72.636 34.2077C73.6919 32.3276 75.4862 29.4328 77.4088 26.8985C78.3712 25.6299 79.3348 24.4929 80.2272 23.6275C81.1674 22.7157 81.8429 22.2906 82.2175 22.1712L80.9805 18.2918C79.6748 18.7082 78.4403 19.6884 77.3925 20.7044C76.297 21.7669 75.1946 23.0802 74.1649 24.4375C72.1034 27.155 70.2089 30.214 69.0858 32.2138L72.636 34.2077Z" fill="white"/>
    <path d="M96.8051 28.5335C97.5924 29.3363 97.5799 30.6252 96.7772 31.4126C95.9745 32.1999 94.6855 32.1874 93.8981 31.3847L96.8051 28.5335ZM81.5078 22.2653C80.3845 22.215 79.5147 21.2637 79.5649 20.1405C79.6151 19.0172 80.5664 18.1473 81.6897 18.1975L81.5078 22.2653ZM93.8981 31.3847C92.3882 29.8452 89.9007 27.5189 87.3834 25.5741C86.1233 24.6006 84.8965 23.7544 83.8092 23.1518C82.6636 22.5169 81.9006 22.2828 81.5078 22.2653L81.6897 18.1975C83.0588 18.2588 84.5064 18.8829 85.7829 19.5904C87.1177 20.3301 88.5246 21.3103 89.8728 22.3519C92.572 24.4373 95.199 26.8961 96.8051 28.5335L93.8981 31.3847Z" fill="white"/>
    <defs>
        <filter id="filter0_d_214_1646" x="-0.580574" y="0.389145" width="170.524" height="112.463" filterUnits="userSpaceOnUse" color-interpolation-filters="sRGB">
            <feFlood flood-opacity="0" result="BackgroundImageFix"/>
            <feColorMatrix in="SourceAlpha" type="matrix" values="0 0 0 0 0 0 0 0 0 0 0 0 0 0 0 0 0 0 127 0" result="hardAlpha"/>
            <feOffset dy="5.42904"/>
            <feGaussianBlur stdDeviation="8.14356"/>
            <feComposite in2="hardAlpha" operator="out"/>
            <feColorMatrix type="matrix" values="0 0 0 0 0 0 0 0 0 0 0 0 0 0 0 0 0 0 0.25 0"/>
            <feBlend mode="normal" in2="BackgroundImageFix" result="effect1_dropShadow_214_1646"/>
            <feBlend mode="normal" in="SourceGraphic" in2="effect1_dropShadow_214_1646" result="shape"/>
        </filter>
    </defs>
</svg>
