<svg width="24" height="29" viewBox="0 0 24 29" fill="none" xmlns="http://www.w3.org/2000/svg">
    <path fill-rule="evenodd" clip-rule="evenodd" d="M23.0054 16.8784C23.0054 10.5271 17.8566 5.37842 11.5054 5.37842C5.1541 5.37842 0.00537109 10.5271 0.00537109 16.8784C0.00537109 23.2297 5.1541 28.3784 11.5054 28.3784C17.8566 28.3784 23.0054 23.2297 23.0054 16.8784Z" fill="#8253DD"/>
    <path d="M19.6206 16.8785C19.6206 15.8128 19.4107 14.7575 19.0028 13.7729C18.595 12.7882 17.9972 11.8936 17.2436 11.14C16.49 10.3864 15.5954 9.78863 14.6108 9.38078C13.6261 8.97294 12.5708 8.76303 11.5051 8.76303L11.5051 16.8785L19.6206 16.8785Z" fill="#DEDEDE"/>
    <path d="M13.1187 3.2655H9.96584V5.97923H13.1187V3.2655Z" fill="#8253DD"/>
    <path d="M15.8047 0.287659H7.27916V3.44981H15.8047V0.287659Z" fill="#8253DD"/>
</svg>
