<svg width="41" height="42" viewBox="0 0 41 42" fill="none" xmlns="http://www.w3.org/2000/svg">
<path d="M27.8292 13.6895C27.8292 15.9576 27.537 18.464 26.4876 20.3879C25.9673 21.3416 25.2653 22.1444 24.3242 22.7109C23.3835 23.2772 22.1756 23.6247 20.6165 23.6247C19.0574 23.6247 17.8495 23.2772 16.9089 22.7109C15.9677 22.1444 15.2657 21.3416 14.7454 20.3879C13.696 18.464 13.4038 15.9576 13.4038 13.6895C13.4038 9.37609 16.6354 6.28564 20.6165 6.28564C24.5977 6.28564 27.8292 9.37609 27.8292 13.6895Z" fill="#8253DD" stroke="#8253DD"/>
<mask id="path-2-inside-1_214_431" fill="white">
<path fill-rule="evenodd" clip-rule="evenodd" d="M5.23193 33.9954C8.29943 26.7157 14.8906 26.7157 20.6165 26.7157C26.2951 26.7157 32.8244 26.7157 35.9241 33.8159C32.3174 38.0036 26.7486 40.6889 20.4997 40.6889C14.3406 40.6889 8.84212 38.0802 5.23193 33.9954Z"/>
</mask>
<path fill-rule="evenodd" clip-rule="evenodd" d="M5.23193 33.9954C8.29943 26.7157 14.8906 26.7157 20.6165 26.7157C26.2951 26.7157 32.8244 26.7157 35.9241 33.8159C32.3174 38.0036 26.7486 40.6889 20.4997 40.6889C14.3406 40.6889 8.84212 38.0802 5.23193 33.9954Z" fill="#8253DD"/>
<path d="M5.23193 33.9954L4.31041 33.6071L4.06625 34.1865L4.48264 34.6576L5.23193 33.9954ZM35.9241 33.8159L36.6819 34.4684L37.0922 33.992L36.8406 33.4157L35.9241 33.8159ZM6.15346 34.3837C7.56755 31.0278 9.74926 29.4006 12.2418 28.5749C14.8085 27.7247 17.7201 27.7157 20.6165 27.7157V25.7157C17.787 25.7157 14.54 25.7067 11.6129 26.6764C8.61142 27.6706 5.96382 29.6833 4.31041 33.6071L6.15346 34.3837ZM20.6165 27.7157C23.4886 27.7157 26.3759 27.7244 28.9282 28.5542C31.4087 29.3607 33.5814 30.949 35.0077 34.216L36.8406 33.4157C35.1672 29.5826 32.5254 27.6208 29.5466 26.6522C26.6396 25.707 23.4231 25.7157 20.6165 25.7157V27.7157ZM35.1664 33.1633C31.7522 37.1275 26.4614 39.6889 20.4997 39.6889V41.6889C27.0358 41.6889 32.8827 38.8797 36.6819 34.4684L35.1664 33.1633ZM20.4997 39.6889C14.6238 39.6889 9.39933 37.2006 5.98123 33.3332L4.48264 34.6576C8.28492 38.9598 14.0575 41.6889 20.4997 41.6889V39.6889Z" fill="#8253DD" mask="url(#path-2-inside-1_214_431)"/>
<circle cx="20.5" cy="20.9253" r="19.5" stroke="#8253DD" stroke-width="2"/>
</svg>
