<svg width="25" height="15" viewBox="0 0 25 15" fill="none" xmlns="http://www.w3.org/2000/svg">
    <path fill-rule="evenodd" clip-rule="evenodd" d="M23.5657 0.989023C23.7326 0.432709 23.5657 0.0239258 22.7717 0.0239258H20.1461C19.4785 0.0239258 19.1707 0.377054 19.0038 0.766452C19.0038 0.766452 17.6686 4.02085 15.7771 6.1348C15.1651 6.74672 14.8869 6.94142 14.5531 6.94142C14.3863 6.94142 14.1447 6.74672 14.1447 6.19045V0.989026C14.1447 0.321447 13.9509 0.0239258 13.3945 0.0239258H9.26859C8.85139 0.0239258 8.60049 0.333764 8.60049 0.627409C8.60049 1.26026 9.54619 1.4062 9.64367 3.18641V7.05273C9.64367 7.90041 9.49058 8.0541 9.15678 8.0541C8.26668 8.0541 6.10153 4.78516 4.81739 1.04463C4.56573 0.317606 4.31331 0.0239258 3.64228 0.0239258H1.01667C0.266498 0.0239258 0.116455 0.377054 0.116455 0.766452C0.116455 1.46186 1.00659 4.91096 4.26109 9.47264C6.43074 12.5879 9.48764 14.2766 12.2693 14.2766C13.9383 14.2766 14.1447 13.9015 14.1447 13.2555V10.901C14.1447 10.1508 14.3028 10.0011 14.8313 10.0011C15.2208 10.0011 15.8884 10.1958 17.4461 11.6979C19.2263 13.478 19.5198 14.2766 20.5212 14.2766H23.1468C23.897 14.2766 24.2721 13.9015 24.0557 13.1614C23.8189 12.4237 22.9689 11.3533 21.8411 10.0846C21.2291 9.36138 20.3112 8.58258 20.033 8.19309C19.6436 7.69248 19.7549 7.46991 20.033 7.0249C20.033 7.0249 23.2319 2.51883 23.5657 0.989023Z" fill="#9B9B9B"/>
</svg>
