<svg width="30" height="30" viewBox="0 0 30 30" fill="none" xmlns="http://www.w3.org/2000/svg">
    <path d="M0.939339 26.9393C0.353553 27.5251 0.353554 28.4749 0.93934 29.0607C1.52513 29.6464 2.47487 29.6464 3.06066 29.0607L0.939339 26.9393ZM29.0606 3.06066C29.6464 2.47487 29.6464 1.52513 29.0606 0.939339C28.4748 0.353553 27.5251 0.353554 26.9393 0.93934L29.0606 3.06066ZM3.06066 29.0607L29.0606 3.06066L26.9393 0.93934L0.939339 26.9393L3.06066 29.0607Z" fill="#8253DD"/>
    <path d="M29.0607 26.9393C29.6464 27.5251 29.6464 28.4749 29.0607 29.0607C28.4749 29.6464 27.5251 29.6464 26.9393 29.0607L29.0607 26.9393ZM0.939365 3.06066C0.353579 2.47487 0.353579 1.52513 0.939365 0.939339C1.52515 0.353553 2.4749 0.353554 3.06069 0.93934L0.939365 3.06066ZM26.9393 29.0607L0.939365 3.06066L3.06069 0.93934L29.0607 26.9393L26.9393 29.0607Z" fill="#8253DD"/>
</svg>
